<?xml version="1.0" encoding="UTF-8"?>
<svg width="240px" height="80px" viewBox="0 0 240 80" version="1.1" xmlns="http://www.w3.org/2000/svg" xmlns:xlink="http://www.w3.org/1999/xlink">
    <title>Group Copy 12</title>
    <g id="Page-1" stroke="none" stroke-width="1" fill="none" fill-rule="evenodd">
        <g id="Artboard" transform="translate(-817.000000, -422.000000)" fill="#3D958B" fill-rule="nonzero">
            <g id="Group-Copy-12" transform="translate(795.000000, 422.000000)">
                <g id="Group-3" transform="translate(18.566406, 19.714232)">
                    <path d="M36.1053495,22.1193853 L35.1007852,51.9601982 L29.4875918,52.7607979 L30.4505769,22.9259153 L36.1053495,22.1193853 Z M49.5765118,28.470902 C55.3144428,27.6525112 59.5963019,30.6055013 60.3494586,35.886061 C61.3872731,43.1624229 56.6697651,49.3505288 49.2270865,50.4120647 C43.4475763,51.2363859 39.1657172,48.2833957 38.4125604,43.002836 C37.3806764,35.7680534 42.1754123,29.5265075 49.5765118,28.470902 Z M54.9143095,37.3400674 C54.5169749,34.5542603 52.3849742,32.9916416 49.6407463,33.3830459 C45.8986174,33.916779 43.3199734,37.5512951 43.8833584,41.5013201 C44.280693,44.2871272 46.3770448,45.8972554 49.1628519,45.4999208 C52.8634017,44.972118 55.4717641,41.2485131 54.9143095,37.3400674 Z M99.2136464,21.3912465 C104.951577,20.5728557 109.233436,23.5258459 109.986593,28.8064056 C111.024408,36.0827674 106.3069,42.2708734 98.8642211,43.3324093 C93.0847109,44.1567304 88.8028518,41.2037403 88.049695,35.9231806 C87.017811,28.688398 91.8125469,22.4468521 99.2136464,21.3912465 Z M146.551306,14.6819861 C152.081341,13.8932471 155.151473,16.9766388 154.930384,22.862829 L154.930384,22.862829 L154.529717,34.9262639 L148.916524,35.7268636 L149.293402,23.7940967 C149.395018,20.9371252 148.029234,19.3924975 145.576061,19.7423892 C142.956571,20.1160024 141.221705,22.2301453 141.13788,25.2118545 L141.13788,25.2118545 L140.766999,36.8892158 L135.195384,37.6838851 L135.572263,25.7511182 C135.673879,22.8941467 134.224936,21.3613797 131.771763,21.7112714 C129.235431,22.0730239 127.542144,24.1812365 127.45832,27.1629456 L127.45832,27.1629456 L127.087438,38.8403069 L121.432666,39.646837 L122.120455,18.590765 L127.026802,17.8909816 L127.210444,20.0708916 C128.642328,18.2120877 130.751207,16.935526 133.20438,16.5856343 C136.031766,16.1823692 138.205479,17.1450879 139.292003,19.1113714 C141.015075,16.6170852 143.432866,15.1267637 146.551306,14.6819861 Z M104.551444,30.260412 C104.154109,27.4746049 102.022109,25.9119862 99.2778809,26.3033905 C95.535752,26.8371236 92.957108,30.4716397 93.520493,34.4216647 C93.9178276,37.2074718 96.0141795,38.8176 98.7999865,38.4202654 C102.500536,37.8924626 105.108899,34.1688577 104.551444,30.260412 Z M180.089169,10.3227915 L179.401379,31.3788634 L174.495032,32.0786469 L174.198581,29.7027015 C172.499364,31.7693349 170.111291,33.1705676 167.367063,33.5619719 C161.587553,34.386293 157.216872,30.215645 157.455885,23.8602228 C157.665247,17.2969044 161.562765,12.4985036 167.425434,11.6623217 C170.502295,11.2234745 173.062149,11.9189934 174.70706,13.6359349 L174.70706,13.6359349 L175.182822,11.0225749 L180.089169,10.3227915 Z M189.976456,0.173025505 L189.461913,16.7921826 L195.730246,8.09193271 L202.673974,7.10156123 L194.088533,18.5929489 L203.27514,27.9737918 L196.580887,28.928581 L189.288667,21.2290974 L189.013471,30.007908 L183.358698,30.8144381 L184.321684,0.979555573 L189.976456,0.173025505 Z M174.188519,21.6009524 C174.319987,18.0609224 172.104961,15.9161948 168.778624,16.3906242 C165.452287,16.8650537 163.063881,19.7512106 162.932414,23.2912406 C162.800946,26.8312706 165.051621,28.9284886 168.377958,28.4540592 C171.704294,27.9796297 174.057051,25.1409824 174.188519,21.6009524 Z M213.432559,5.14283305 C220.999976,4.06350605 224.925013,8.97651621 223.699759,16.4483803 L223.699759,16.4483803 L210.059826,18.3934822 C209.770959,17.0788948 209.989489,15.517128 210.281998,14.6269902 L218.687332,13.4298895 C218.67014,10.6322883 216.864777,9.27763232 213.663177,9.73427066 C211.103323,10.0993781 209.186324,11.6168761 208.349883,13.864746 C207.627153,15.6064266 207.685869,17.4767938 207.952624,18.7737657 C208.311244,21.3079584 210.450229,22.6654918 213.660379,22.207634 C215.822498,21.8992548 218.044187,20.8187284 219.493795,19.381647 L219.493795,19.381647 L222.599576,22.417529 C220.371623,24.9414004 217.371723,26.5147471 213.629594,27.0484802 C206.685866,28.0388517 202.107222,24.1948404 202.310654,17.5899428 C202.520082,10.7296396 206.821465,6.08576159 213.432559,5.14283305 Z M237.722112,1.6784577 C239.842652,1.37600893 241.856112,1.81005857 243.109152,2.8616661 L243.109152,2.8616661 L240.61933,7.71384001 C239.544401,7.01865427 238.362459,6.7629821 237.115082,6.94089315 C234.246117,7.35008855 232.285431,9.96311537 232.153963,13.5031453 L232.153963,13.5031453 L231.854646,23.8975481 L226.199873,24.7040782 L226.887663,3.64800626 L231.877168,2.93636208 L232.060676,5.71024181 C233.421396,3.35248735 235.268939,2.02834942 237.722112,1.6784577 Z" id="Combined-Shape"></path>
                    <path d="M75.1175937,59.4657678 C81.9215937,59.4657678 86.3315937,56.0637678 86.3315937,50.8137678 C86.3315937,47.7897678 84.6095937,45.4797678 81.5855937,44.2197678 C84.6515937,42.6237678 86.3315937,39.8937678 86.3315937,36.4917678 C86.3315937,34.1397678 85.6595937,32.2917678 84.0635937,30.4437678 L86.8775937,27.1257678 L82.8455937,24.1017678 L80.2835937,27.2517678 C78.8135937,26.4537678 77.0075937,26.0337678 75.0755937,26.0337678 C68.5235937,26.0337678 63.8615937,30.4017678 63.8615937,36.4917678 C63.8615937,42.8337678 68.2715937,46.9077678 75.2015937,46.9077678 C78.6455937,46.9077678 80.6615937,48.2937678 80.6615937,50.6877678 C80.6615937,53.0397678 78.4355937,54.6357678 75.1175937,54.6357678 C71.5475937,54.6357678 69.4055937,52.8297678 69.4895937,49.9317678 L64.0715937,49.9317678 C63.6935937,55.6017678 68.1035937,59.4657678 75.1175937,59.4657678 Z M75.1175937,42.0357678 C71.7155937,42.0357678 69.4055937,39.7677678 69.4055937,36.4917678 C69.4055937,33.1317678 71.6735937,30.9057678 75.1175937,30.9057678 C78.5615937,30.9057678 80.8295937,33.1317678 80.8295937,36.4917678 C80.8295937,39.7677678 78.5615937,42.0357678 75.1175937,42.0357678 Z" id="g" transform="translate(75.369594, 41.783768) rotate(-6.000000) translate(-75.369594, -41.783768) "></path>
                </g>
                <g id="Group-2" transform="translate(0.566406, 0.000000)">
                    <path d="M77.32347,13.4985963 L63.2394454,44.4412583 L57.1273014,45.3130224 L62.6064285,33.1616315 L55.6607014,16.5883181 L61.4817909,15.7580666 L65.8628003,26.8425244 L71.1281677,14.3822212 L77.32347,13.4985963 Z M46.6427126,17.3654371 C52.1727476,16.5766982 55.2428792,19.6600898 55.0217897,25.54628 L55.0217897,25.54628 L54.6211234,37.609715 L49.00793,38.4103147 L49.3848082,26.4775477 C49.4864241,23.6205762 48.1206403,22.0759485 45.6674669,22.4258402 C43.0479766,22.7994534 41.3131107,24.9135964 41.229286,27.8953055 L41.229286,27.8953055 L40.8584047,39.5726668 L35.2867906,40.3673361 L35.6636688,28.4345692 C35.7652846,25.5775977 34.3163424,24.0448307 31.863169,24.3947225 C29.3268372,24.7564749 27.6335505,26.8646875 27.5497258,29.8463966 L27.5497258,29.8463966 L27.1788445,41.5237579 L21.5240719,42.330288 L22.2118614,21.2742161 L27.1182082,20.5744326 L27.3018497,22.7543427 C28.7337338,20.8955387 30.8426126,19.618977 33.2957861,19.2690853 C36.1231724,18.8658203 38.2968855,19.8285389 39.3834089,21.7948224 C41.1064807,19.3005362 43.5242718,17.8102147 46.6427126,17.3654371 Z M98.5990279,1.04574102 C100.844305,0.725501138 102.762746,1.0882531 104.306841,2.09834805 L104.306841,2.09834805 L102.292381,6.11907101 C101.324332,5.57834138 100.368077,5.41775501 99.453334,5.54822311 C97.4575319,5.83288078 96.3524178,7.30567771 96.262796,9.65183796 L96.262796,9.65183796 L96.2447383,10.7150397 L102.107407,9.87885778 L101.928163,14.5711783 L96.0654946,15.4073602 L95.5569489,31.7711116 L89.9853347,32.565781 L90.4938804,16.2020295 L86.7517515,16.7357627 L86.889416,12.0493725 L90.6731241,11.509709 L90.7091062,9.97727524 C90.8527677,5.03547948 93.7758395,1.73366372 98.5990279,1.04574102 Z M114.903373,7.62954157 C117.023913,7.32709279 119.037373,7.76114243 120.290413,8.81274996 L120.290413,8.81274996 L117.800592,13.6649239 C116.725662,12.9697381 115.54372,12.714066 114.296344,12.891977 C111.427378,13.3011724 109.466692,15.9141992 109.335224,19.4542292 L109.335224,19.4542292 L109.035907,29.848632 L103.381135,30.6551621 L104.068924,9.59909013 L109.058429,8.88744595 L109.241938,11.6613257 C110.602657,9.30357122 112.4502,7.97943329 114.903373,7.62954157 Z M130.877084,5.35123985 C138.444501,4.27191284 142.369538,9.184923 141.144284,16.6567871 L141.144284,16.6567871 L127.55262,18.5957089 C127.245369,17.3080904 127.442411,15.7598613 127.725937,14.8367368 L136.131857,13.6382963 C136.114666,10.8406951 134.309302,9.48603911 131.107702,9.94267746 C128.155579,10.3637336 126.058427,12.3174234 125.487579,15.1564706 L125.487579,15.1564706 L125.544325,15.1480679 C125.22208,16.49727 125.247898,17.8621462 125.412826,18.9009331 L125.385763,18.9043966 C125.711867,21.488238 127.861725,22.8786095 131.104904,22.4160408 C133.267023,22.1076616 135.488712,21.0271352 136.93832,19.5900538 L136.93832,19.5900538 L140.044101,22.6259358 C137.816148,25.1498072 134.816248,26.7231539 131.074119,27.256887 C124.130391,28.2472585 119.551747,24.4032472 119.755179,17.7983496 C119.964607,10.9380464 124.26599,6.29416838 130.877084,5.35123985 Z M153.919261,2.06477554 C161.486677,0.985448536 165.411715,5.89845869 164.186461,13.3703228 L164.186461,13.3703228 L150.495716,15.3237116 C150.245424,13.9427191 150.515654,12.3437232 150.827496,11.5419686 L159.174034,10.351832 C159.156842,7.5542308 157.351478,6.1995748 154.149879,6.65621315 C151.197755,7.07726929 149.100604,9.03095911 148.529756,11.8700062 L148.529756,11.8700062 C148.19069,13.2097862 148.25361,14.5629863 148.449541,15.6151154 L148.42794,15.6179323 C148.754044,18.2017737 150.903902,19.5921452 154.147081,19.1295765 C156.3092,18.8211973 158.530889,17.7406709 159.980497,16.3035895 L159.980497,16.3035895 L163.086278,19.3394715 C160.858325,21.8633429 157.858425,23.4366896 154.116296,23.9704227 C147.172568,24.9607942 142.593924,21.1167828 142.797355,14.5118853 C143.006784,7.65158213 147.308167,3.00770407 153.919261,2.06477554 Z" id="Combined-Shape"></path>
                </g>
            </g>
        </g>
    </g>
</svg>